PathFileType	4	(X/Y/Z)	pose_F01_0-96.trc
DataRate	CameraRate	NumFrames	NumMarkers	Units	OrigDataRate	OrigDataStartFrame	OrigNumFrames
30	30	6	21	m	30	24	96
Frame#	Time	CHip			RHip			RKnee			RAnkle			RBigToe			RSmallToe			RHeel			LHip			LKnee			LAnkle			LBigToe			LSmallToe			LHeel			Neck			Nose			RShoulder			RElbow			RWrist			LShoulder			LElbow			LWrist			
		X1	Y1	Z1	X2	Y2	Z2	X3	Y3	Z3	X4	Y4	Z4	X5	Y5	Z5	X6	Y6	Z6	X7	Y7	Z7	X8	Y8	Z8	X9	Y9	Z9	X10	Y10	Z10	X11	Y11	Z11	X12	Y12	Z12	X13	Y13	Z13	X14	Y14	Z14	X15	Y15	Z15	X16	Y16	Z16	X17	Y17	Z17	X18	Y18	Z18	X19	Y19	Z19	X20	Y20	Z20	X21	Y21	Z21	
24	0.8	-0.23535152769035028	1.869560861186442	-0.5030007540606395	-0.24921566235666429	1.866660648759904	-0.43430455056131967	-0.2725650182398313	1.7075973795576946	-0.41152768156286695	-0.28231138943901846	1.5503513482058973	-0.37829924705382434	-0.24164449866017956	1.5153258926765125	-0.3431391893694546	-0.2564448889617767	1.5179948055362982	-0.32120127320898295	-0.2528342457267648	1.5681100209797034	-0.39945258569334985	-0.2243559918105931	1.873955176012673	-0.5586620490230354	-0.24102117395116862	1.7097032785670003	-0.5666842447434672													-0.24731707431774627	2.049735347246752	-0.5224661495854039	-0.21334817128452113	2.1198164918859734	-0.5178891606900309	-0.26548927187993243	2.046491964734939	-0.4375011163456924	-0.27427452661114815	1.9550103654033006	-0.4091406394534907	-0.2544344994342404	1.8690107462960346	-0.38389101154118754	-0.2298031148224285	2.0527589262119617	-0.6081722755223242	-1.4702069811223035	1.8710783966488003	0.6853602879635412	-0.21531477172983288	1.8708762854409606	-0.6143411694209309
25	0.8333333333333334	-0.23854216498938705	1.8657097600761612	-0.5035191441123639	-0.24935034512831467	1.864443916854624	-0.43398132634486614	-0.27262879071593304	1.7111065214588648	-0.41190004390664353	-0.2823031623534011	1.5503506471188704	-0.37830723839771363	-0.2451180047383599	1.5156944607097278	-0.3393540253520049	-0.2598224475091633	1.5207065217318496	-0.3178952173347067	-0.2528342457267648	1.5681100209797034	-0.39945258569334985	-0.2255569059628603	1.8701362669215185	-0.5613989278403234	-0.2420243145043336	1.7088844547334698	-0.5613772178400075													-0.2481828211002777	2.049902575416251	-0.5254483025462908	-0.21242747654446517	2.119669093739088	-0.5149569648566118	-0.2654802140383919	2.0464305123434854	-0.43750993143800454	-0.2746913468887382	1.948629033781319	-0.40861420314077307	-0.25558991994721636	1.8667828058406197	-0.38698993886448313	-0.22777405677813403	2.052835553840671	-0.6103497506834107	-1.4787545127884758	1.8707844150269357	0.7007437117463998	-0.21366004305931716	1.8704552473887204	-0.6078621570872603
26	0.8666666666666667	-0.23771798866061428	1.8671571195617769	-0.5004601092907258	-0.24845041700090945	1.8655409425128844	-0.43085117826108676	-0.27257701001739165	1.710993161327983	-0.4118235991001851	-0.28229493526778365	1.5503499460318435	-0.378315229741603	-0.2426160885148809	1.512101558400889	-0.34569399917409577	-0.25815975880742165	1.5169786936535554	-0.3191405817784438	-0.2528342457267648	1.5681100209797034	-0.39945258569334985	-0.22563090471202682	1.871479284690245	-0.5614468513498587	-0.24298034018375386	1.709182220624537	-0.5645376636609285													-0.24727739799509207	2.0497258405444807	-0.5224792776834469	-0.21243136370439422	2.119617931431046	-0.5149847355431891	-0.26544297390380467	2.046436110330054	-0.4374470557357474	-0.2727819708061182	1.9535844221559966	-0.4117219543252179	-0.2555103918562825	1.8708729689796362	-0.38754724862010465	-0.22783235565921367	2.0527325510386603	-0.6103288674817825	-1.472202065903466	1.8709993866122243	0.6874916556532842	-0.21504767549259443	1.8748358265383147	-0.6146602838418072
27	0.9	-0.23668946686053144	1.8674945621513208	-0.49721634756344374	-0.24836737594522038	1.8658486001889785	-0.4307406100984666	-0.2727321760609699	1.7091374201305767	-0.41141556605057905	-0.2822867081821662	1.5503492449448166	-0.3783232210854923	-0.2390848912146648	1.5138477994611756	-0.35012692103993576	-0.2548256703619253	1.517028799905372	-0.3228411909051692	-0.2528342457267648	1.5681100209797034	-0.39945258569334985	-0.22468410036974343	1.8714899674689698	-0.5582591606037477	-0.2429420437206222	1.7087524049071527	-0.5645350016000483													-0.2472879642846797	2.049661067008563	-0.5223538818175573	-0.2124137373316907	2.119684248055803	-0.5149497955115049	-0.2645361149047513	2.0453611983296667	-0.4344075274532392	-0.27184504549238553	1.950349004565169	-0.40792604327338466	-0.25398642374135166	1.865889353378135	-0.3802828102302202	-0.22980852329630033	2.052676929996151	-0.6082017993199109	-1.480485132573607	1.8710411896358752	0.7023141939788877	-0.21612654116986835	1.8701756436306034	-0.6091265768343118
28	0.9333333333333333	-0.23456115217507928	1.8684075128472881	-0.49969857257193445	-0.24832690613517683	1.8655190445271355	-0.4308796679824403	-0.2730746565960935	1.7121284626768063	-0.41134882741763984	-0.2823575956938863	1.553495916875062	-0.37867165426854227	-0.24499329345430815	1.5168193234062086	-0.3440419742985917	-0.25881286741538084	1.5202672606541148	-0.31901685581413236	-0.2528342457267648	1.5681100209797034	-0.39945258569334985	-0.22559594608890587	1.871291980544925	-0.5614363278896675	-0.24329530511203618	1.7112930963151498	-0.5643525578583629													-0.24728120835463147	2.049662178595612	-0.5223613774802994	-0.2124025916265872	2.1196284603531104	-0.5149258693608849	-0.2655279158063201	2.045461394610063	-0.43745975169913287	-0.27114467319137214	1.9507888916827525	-0.4137357752167399	-0.25500007317599044	1.8679808220967355	-0.3839562743214794	-0.2297804497129079	2.052706233588302	-0.6081360247498744	-1.4823574758306637	1.8731844675518194	0.7046914039520644	-0.21434822013022106	1.8663206580242557	-0.6113701353519265
29	0.9666666666666667	-0.23473643830050564	1.8712624839292484	-0.5000857146180462	-0.24853125354925715	1.8684203988028933	-0.4313037979594637	-0.27310341732836396	1.7117864140335777	-0.4112937796747157	-0.2823575956938863	1.553495916875062	-0.37867165426854227	-0.24474216089714834	1.515430516612501	-0.34428941092163057	-0.25856832620373765	1.5188328774463575	-0.31922467473132915	-0.2528342457267648	1.5681100209797034	-0.39945258569334985	-0.22468484960353902	1.8750889498480139	-0.5589122243655995	-0.24153252624972352	1.713822063190212	-0.5665227997086795													-0.24728368262717326	2.0496636098255028	-0.5223745248451667	-0.21239665889723566	2.119644530459865	-0.5149155473967831	-0.2655058968879269	2.0478302193778	-0.43784223885094925	-0.2730200044803471	1.9507947173580857	-0.4114686716315884	-0.25513860424765994	1.8690191417170312	-0.38431168125593745	-0.22781886774689053	2.052695334433198	-0.6102655215864499	-1.4766646681785482	1.8748363927088645	0.6934968644346576	-0.2143348803744025	1.8716231196023636	-0.6116097155998108
